 <svg  version="1.0" xmlns="http://www.w3.org/2000/svg"  width="300.000000pt" height="238.000000pt" viewBox="0 0 300.000000 238.000000"  preserveAspectRatio="xMidYMid meet">  <g transform="translate(0.000000,238.000000) scale(0.100000,-0.100000)" fill="#000080" stroke="none"> <path d="M2087 2104 c-144 -26 -233 -79 -412 -248 l-105 -99 -73 22 c-88 26 -242 29 -332 6 -127 -32 -194 -77 -383 -254 -314 -294 -423 -409 -459 -481 -52 -104 -77 -218 -70 -325 19 -308 241 -546 544 -584 98 -12 214 1 296 34 74 31 79 31 153 1 79 -32 198 -49 282 -40 151 15 279 75 395 182 86 79 435 411 562 533 50 48 112 107 139 130 187 167 267 417 206 653 -63 247 -257 426 -510 472 -92 16 -133 16 -233 -2z m259 -224 c276 -95 380 -429 206 -658 -20 -27 -93 -102 -162 -167 -69 -65 -163 -155 -210 -200 -522 -500 -523 -500 -705 -500 -107 0 -112 1 -180 37 -143 74 -223 177 -245 318 -18 117 26 275 94 339 23 21 28 23 56 11 25 -10 34 -10 54 3 20 13 30 39 56 147 29 123 30 133 15 156 -19 30 -35 30 -132 0 -43 -14 -104 -32 -136 -41 -63 -17 -76 -33 -60 -75 9 -24 6 -33 -24 -71 -175 -221 -190 -527 -37 -758 45 -67 38 -73 -76 -68 -114 5 -184 33 -260 104 -136 125 -172 312 -94 480 30 64 71 107 375 395 102 96 207 188 232 203 93 54 215 69 315 40 124 -37 216 -117 270 -232 23 -51 27 -70 26 -158 0 -166 -10 -185 -229 -400 -169 -167 -182 -182 -173 -205 15 -40 69 -90 111 -101 45 -12 34 -19 182 121 172 163 212 209 254 288 119 231 93 490 -71 696 l-39 50 78 79 c94 95 148 134 228 164 81 30 199 31 281 3z"/> </g> </svg> 