<svg width="40" height="40" viewBox="0 0 40 40" fill="none" xmlns="http://www.w3.org/2000/svg">
  <path d="M8 12C8 9.79086 9.79086 8 12 8H16C18.2091 8 20 9.79086 20 12V16C20 18.2091 18.2091 20 16 20H12C9.79086 20 8 18.2091 8 16V12Z" fill="#6366f1"/>
  <path d="M20 20C20 17.7909 21.7909 16 24 16H28C30.2091 16 32 17.7909 32 20V24C32 26.2091 30.2091 28 28 28H24C21.7909 28 20 26.2091 20 24V20Z" fill="#6366f1"/>
  <path d="M16 16L24 20" stroke="#6366f1" stroke-width="4" stroke-linecap="round"/>
</svg>